<?xml version="1.0" ?><svg xmlns="http://www.w3.org/2000/svg" width="24" height="24" viewBox="0 0 24 24" fill="none"><path fill-rule="evenodd" clip-rule="evenodd" d="M4.82843 4.82843C1.98952 7.66734 1.98952 12.2701 4.82843 15.109C7.42744 17.708 11.5048 17.9277 14.3537 15.7679L19.2426 20.6569C19.6332 21.0474 20.2663 21.0474 20.6569 20.6569C21.0474 20.2663 21.0474 19.6332 20.6569 19.2426L15.7679 14.3537C17.9277 11.5048 17.708 7.42744 15.109 4.82843C12.2701 1.98952 7.66734 1.98952 4.82843 4.82843ZM6.24264 13.6948C4.18478 11.6369 4.18478 8.3005 6.24264 6.24264C8.3005 4.18479 11.6369 4.18478 13.6948 6.24264C15.7527 8.3005 15.7527 11.6369 13.6948 13.6948C11.6369 15.7527 8.3005 15.7527 6.24264 13.6948Z" fill="#0D4DDF"/></svg>